<svg width="36" height="36" xmlns="http://www.w3.org/2000/svg">

 <g>
  <title>Layer 1</title>
  <path id="svg_1" d="m36,32c0,2.209 -1.791,4 -4,4l-28,0c-2.209,0 -4,-1.791 -4,-4l0,-28c0,-2.209 1.791,-4 4,-4l28,0c2.209,0 4,1.791 4,4l0,28z" fill="#6c63ff"/>
  <path id="svg_2" d="m8.174,9.125c0.186,-1.116 1.395,-2.387 3.039,-2.387c1.55,0 2.76,1.116 3.101,2.232l3.659,12.278l0.062,0l3.657,-12.278c0.341,-1.116 1.55,-2.232 3.101,-2.232c1.642,0 2.852,1.271 3.039,2.387l2.883,17.302c0.031,0.186 0.031,0.372 0.031,0.526c0,1.365 -0.992,2.232 -2.232,2.232c-1.582,0 -2.201,-0.713 -2.418,-2.17l-1.83,-12.619l-0.062,0l-3.721,12.991c-0.217,0.744 -0.805,1.798 -2.48,1.798c-1.674,0 -2.263,-1.054 -2.48,-1.798l-3.721,-12.991l-0.062,0l-1.83,12.62c-0.217,1.457 -0.837,2.17 -2.418,2.17c-1.24,0 -2.232,-0.867 -2.232,-2.232c0,-0.154 0,-0.341 0.031,-0.526l2.883,-17.303z" fill="#FFF"/>
 </g>
</svg>